<?xml version="1.0" encoding="utf-8"?>
<!-- Generator: Adobe Illustrator 16.0.0, SVG Export Plug-In . SVG Version: 6.00 Build 0)  -->
<!DOCTYPE svg PUBLIC "-//W3C//DTD SVG 1.1//EN" "http://www.w3.org/Graphics/SVG/1.1/DTD/svg11.dtd">
<svg version="1.1" id="Layer_1" xmlns="http://www.w3.org/2000/svg" xmlns:xlink="http://www.w3.org/1999/xlink" x="0px" y="0px"
	 width="365.299px" height="345.65px" viewBox="0 0 365.299 345.65" enable-background="new 0 0 365.299 345.65"
	 xml:space="preserve">
<g display="none">
	<defs>
		<rect id="SVGID_1_" x="175.513" y="223.703" width="2.525" height="1.436"/>
	</defs>
	<clipPath id="SVGID_2_" display="inline">
		<use xlink:href="#SVGID_1_"  overflow="visible"/>
	</clipPath>
	<g display="inline" clip-path="url(#SVGID_2_)">
		<defs>
			<rect id="SVGID_3_" x="-618.35" y="-1914.35" width="1600" height="5477"/>
		</defs>
		<clipPath id="SVGID_4_">
			<use xlink:href="#SVGID_3_"  overflow="visible"/>
		</clipPath>
		<g clip-path="url(#SVGID_4_)" enable-background="new    ">
			<g>
				<defs>
					<rect id="SVGID_5_" x="174.65" y="223.65" width="2" height="1"/>
				</defs>
				<clipPath id="SVGID_6_">
					<use xlink:href="#SVGID_5_"  overflow="visible"/>
				</clipPath>
				<g clip-path="url(#SVGID_6_)">
					<defs>
						<path id="SVGID_7_" d="M175.795,223.779c-0.104-0.135-0.227-0.055-0.282-0.033
							C175.613,223.684,175.752,223.923,175.795,223.779"/>
					</defs>
					<clipPath id="SVGID_8_">
						<use xlink:href="#SVGID_7_"  overflow="visible"/>
					</clipPath>
					<g clip-path="url(#SVGID_8_)">
						<defs>
							<rect id="SVGID_9_" x="174.65" y="223.65" width="2" height="1"/>
						</defs>
						<clipPath id="SVGID_10_">
							<use xlink:href="#SVGID_9_"  overflow="visible"/>
						</clipPath>
						<rect x="170.513" y="218.703" clip-path="url(#SVGID_10_)" fill="#8A8A8A" width="10.282" height="10.123"/>
					</g>
				</g>
			</g>
		</g>
	</g>
</g>
<g>
	<g>
		
			<ellipse fill="none" stroke="#E3E3E2" stroke-width="1.3" stroke-miterlimit="10" cx="238.15" cy="119.15" rx="117.5" ry="118.5"/>
		
			<ellipse fill="none" stroke="#E3E3E2" stroke-width="1.3" stroke-miterlimit="10" cx="210.15" cy="215.15" rx="117.5" ry="118.5"/>
		<ellipse fill="none" stroke="#E3E3E2" stroke-width="1.3" stroke-miterlimit="10" cx="141.65" cy="165.15" rx="141" ry="141.5"/>
	</g>
	<g>
		<defs>
			<path id="SVGID_11_" d="M308.65,13.65c0,7.18-5.82,13-13,13s-13-5.82-13-13s5.82-13,13-13S308.65,6.47,308.65,13.65"/>
		</defs>
		<clipPath id="SVGID_12_">
			<use xlink:href="#SVGID_11_"  overflow="visible"/>
		</clipPath>
		<g clip-path="url(#SVGID_12_)">
			<defs>
				<rect id="SVGID_13_" x="-618.35" y="-1914.35" width="1600" height="5477"/>
			</defs>
			<clipPath id="SVGID_14_">
				<use xlink:href="#SVGID_13_"  overflow="visible"/>
			</clipPath>
			<rect x="277.65" y="-4.35" clip-path="url(#SVGID_14_)" fill="#DEA636" width="36" height="36"/>
		</g>
	</g>
	<g>
		<defs>
			<path id="SVGID_15_" d="M237.65,332.65c0,7.18-5.82,13-13,13s-13-5.82-13-13s5.82-13,13-13S237.65,325.471,237.65,332.65"/>
		</defs>
		<clipPath id="SVGID_16_">
			<use xlink:href="#SVGID_15_"  overflow="visible"/>
		</clipPath>
		<g clip-path="url(#SVGID_16_)">
			<defs>
				<rect id="SVGID_17_" x="-618.35" y="-1914.35" width="1600" height="5477"/>
			</defs>
			<clipPath id="SVGID_18_">
				<use xlink:href="#SVGID_17_"  overflow="visible"/>
			</clipPath>
			<rect x="206.65" y="314.65" clip-path="url(#SVGID_18_)" fill="#DEA636" width="36" height="36"/>
		</g>
	</g>
	<g>
		<defs>
			<rect id="SVGID_19_" x="346.631" y="109.254" width="18.668" height="18.667"/>
		</defs>
		<clipPath id="SVGID_20_">
			<use xlink:href="#SVGID_19_"  overflow="visible"/>
		</clipPath>
		<g clip-path="url(#SVGID_20_)">
			<defs>
				<rect id="SVGID_21_" x="-618.35" y="-1914.35" width="1600" height="5477"/>
			</defs>
			<clipPath id="SVGID_22_">
				<use xlink:href="#SVGID_21_"  overflow="visible"/>
			</clipPath>
			<g clip-path="url(#SVGID_22_)" enable-background="new    ">
				<g>
					<defs>
						<rect id="SVGID_23_" x="345.65" y="108.65" width="20" height="20"/>
					</defs>
					<clipPath id="SVGID_24_">
						<use xlink:href="#SVGID_23_"  overflow="visible"/>
					</clipPath>
					<g clip-path="url(#SVGID_24_)">
						<defs>
							<path id="SVGID_25_" d="M365.299,118.588c0,5.154-4.18,9.333-9.334,9.333s-9.334-4.179-9.334-9.333
								c0-5.155,4.18-9.334,9.334-9.334S365.299,113.433,365.299,118.588"/>
						</defs>
						<clipPath id="SVGID_26_">
							<use xlink:href="#SVGID_25_"  overflow="visible"/>
						</clipPath>
						<g clip-path="url(#SVGID_26_)">
							<defs>
								<rect id="SVGID_27_" x="345.65" y="108.65" width="20" height="20"/>
							</defs>
							<clipPath id="SVGID_28_">
								<use xlink:href="#SVGID_27_"  overflow="visible"/>
							</clipPath>
							<rect x="341.631" y="104.254" clip-path="url(#SVGID_28_)" fill="#ABD541" width="28.668" height="28.667"/>
						</g>
					</g>
				</g>
			</g>
		</g>
	</g>
	<g>
		<defs>
			<path id="SVGID_29_" d="M61.65,56.65c0,4.971-4.029,9-9,9s-9-4.029-9-9s4.029-9,9-9S61.65,51.679,61.65,56.65"/>
		</defs>
		<clipPath id="SVGID_30_">
			<use xlink:href="#SVGID_29_"  overflow="visible"/>
		</clipPath>
		<g clip-path="url(#SVGID_30_)">
			<defs>
				<rect id="SVGID_31_" x="-618.35" y="-1914.35" width="1600" height="5477"/>
			</defs>
			<clipPath id="SVGID_32_">
				<use xlink:href="#SVGID_31_"  overflow="visible"/>
			</clipPath>
			<rect x="38.65" y="42.65" clip-path="url(#SVGID_32_)" fill="#313E79" width="28" height="28"/>
		</g>
	</g>
	<g>
		<defs>
			<path id="SVGID_33_" d="M16.65,214.15c0,3.59-2.909,6.5-6.5,6.5s-6.5-2.91-6.5-6.5c0-3.592,2.909-6.5,6.5-6.5
				S16.65,210.559,16.65,214.15"/>
		</defs>
		<clipPath id="SVGID_34_">
			<use xlink:href="#SVGID_33_"  overflow="visible"/>
		</clipPath>
		<g clip-path="url(#SVGID_34_)">
			<defs>
				<rect id="SVGID_35_" x="-618.35" y="-1914.35" width="1600" height="5477"/>
			</defs>
			<clipPath id="SVGID_36_">
				<use xlink:href="#SVGID_35_"  overflow="visible"/>
			</clipPath>
			<rect x="-1.35" y="202.65" clip-path="url(#SVGID_36_)" fill="#72BFE7" width="23" height="23"/>
		</g>
	</g>
	<g>
		<defs>
			<rect id="SVGID_37_" x="59.65" y="45.65" width="236" height="249"/>
		</defs>
		<clipPath id="SVGID_38_">
			<use xlink:href="#SVGID_37_"  overflow="visible"/>
		</clipPath>
		<path clip-path="url(#SVGID_38_)" fill-rule="evenodd" clip-rule="evenodd" fill="#FFFFFF" d="M-207.35,191.016
			c0,14.766-9.942,32.922-22.671,40.342l-40.451,23.727c-12.729,7.421-33.438,7.421-46.167,0l-41.125-23.727
			c-12.729-7.42-23.586-25.576-23.586-40.342v-47.731c0-14.767,10.917-32.922,23.646-40.346l40.936-23.723
			c12.726-7.421,33.681-7.421,46.407,0l40.28,23.726c12.729,7.421,22.732,25.576,22.732,40.343V191.016z"/>
	</g>
</g>
</svg>
